HIERARCHY
ROOT Hips
{
	OFFSET 0.00000 0.00000 0.00000
	CHANNELS 6 Xposition Yposition Zposition Zrotation Yrotation Xrotation 
	JOINT LHipJoint
	{
		OFFSET 0 0 0
		CHANNELS 3 Zrotation Yrotation Xrotation
		JOINT LeftUpLeg
		{
			OFFSET 2.36090 -1.39315 1.24752
			CHANNELS 3 Zrotation Yrotation Xrotation
			JOINT LeftLeg
			{
				OFFSET 2.06810 -5.68207 0.00000
				CHANNELS 3 Zrotation Yrotation Xrotation
				JOINT LeftFoot
				{
					OFFSET 2.46631 -6.77613 0.00000
					CHANNELS 3 Zrotation Yrotation Xrotation
					JOINT LeftToeBase
					{
						OFFSET 0.26031 -0.71520 1.99545
						CHANNELS 3 Zrotation Yrotation Xrotation
						End Site
						{
							OFFSET 0.00000 -0.00000 1.05957
						}
					}
				}
			}
		}
	}
	JOINT RHipJoint
	{
		OFFSET 0 0 0
		CHANNELS 3 Zrotation Yrotation Xrotation
		JOINT RightUpLeg
		{
			OFFSET -2.25243 -1.39315 1.24752
			CHANNELS 3 Zrotation Yrotation Xrotation
			JOINT RightLeg
			{
				OFFSET -2.17343 -5.97145 0.00000
				CHANNELS 3 Zrotation Yrotation Xrotation
				JOINT RightFoot
				{
					OFFSET -2.52372 -6.93386 0.00000
					CHANNELS 3 Zrotation Yrotation Xrotation
					JOINT RightToeBase
					{
						OFFSET -0.22538 -0.61923 2.11447
						CHANNELS 3 Zrotation Yrotation Xrotation
						End Site
						{
							OFFSET -0.00000 -0.00000 1.10506
						}
					}
				}
			}
		}
	}
	JOINT LowerBack
	{
		OFFSET 0 0 0
		CHANNELS 3 Zrotation Yrotation Xrotation
		JOINT Spine
		{
			OFFSET 0.01594 2.13103 0.08007
			CHANNELS 3 Zrotation Yrotation Xrotation
			JOINT Spine1
			{
				OFFSET 0.01393 2.09723 0.18338
				CHANNELS 3 Zrotation Yrotation Xrotation
				JOINT Neck
				{
					OFFSET 0 0 0
					CHANNELS 3 Zrotation Yrotation Xrotation
					JOINT Neck1
					{
						OFFSET 0.05351 1.38915 0.32494
						CHANNELS 3 Zrotation Yrotation Xrotation
						JOINT Head
						{
							OFFSET 0.00711 1.45992 -0.21666
							CHANNELS 3 Zrotation Yrotation Xrotation
							End Site
							{
								OFFSET -0.00433 1.47702 -0.11056
							}
						}
					}
				}
				JOINT LeftShoulder
				{
					OFFSET 0 0 0
					CHANNELS 3 Zrotation Yrotation Xrotation
					JOINT LeftArm
					{
						OFFSET 2.87198 0.92249 0.11132
						CHANNELS 3 Zrotation Yrotation Xrotation
						JOINT LeftForeArm
						{
							OFFSET 5.52731 -0.00000 0.00000
							CHANNELS 3 Zrotation Yrotation Xrotation
							JOINT LeftHand
							{
								OFFSET 3.11059 -0.00000 0.00000
								CHANNELS 3 Zrotation Yrotation Xrotation
								JOINT LeftFingerBase
								{
									OFFSET 0 0 0
									CHANNELS 3 Zrotation Yrotation Xrotation
									JOINT LeftHandIndex1
									{
										OFFSET 0.41963 -0.00000 0.00000
										CHANNELS 3 Zrotation Yrotation Xrotation
										End Site
										{
											OFFSET 0.33831 -0.00000 0.00000
										}
									}
								}
								JOINT LThumb
								{
									OFFSET 0 0 0
									CHANNELS 3 Zrotation Yrotation Xrotation
									End Site
									{
										OFFSET 0.34348 -0.00000 0.34348
									}
								}
							}
						}
					}
				}
				JOINT RightShoulder
				{
					OFFSET 0 0 0
					CHANNELS 3 Zrotation Yrotation Xrotation
					JOINT RightArm
					{
						OFFSET -2.94710 0.68072 0.32187
						CHANNELS 3 Zrotation Yrotation Xrotation
						JOINT RightForeArm
						{
							OFFSET -5.25396 -0.00000 -0.00000
							CHANNELS 3 Zrotation Yrotation Xrotation
							JOINT RightHand
							{
								OFFSET -3.10567 -0.00000 0.00000
								CHANNELS 3 Zrotation Yrotation Xrotation
								JOINT RightFingerBase
								{
									OFFSET 0 0 0
									CHANNELS 3 Zrotation Yrotation Xrotation
									JOINT RightHandIndex1
									{
										OFFSET -0.49868 -0.00000 0.00000
										CHANNELS 3 Zrotation Yrotation Xrotation
										End Site
										{
											OFFSET -0.40204 -0.00000 0.00000
										}
									}
								}
								JOINT RThumb
								{
									OFFSET 0 0 0
									CHANNELS 3 Zrotation Yrotation Xrotation
									End Site
									{
										OFFSET -0.40818 -0.00000 0.40818
									}
								}
							}
						}
					}
				}
			}
		}
	}
}
MOTION
Frames: 7
Frame Time: .0083333
7.5567 15.42 21.8198 0 0 0 0 0 0 -21 0 0 0 0 0 0 0 0 0 0 0 0 0 0 21 0 0 0 0 0 0 0 0 0 0 0 0 0 0 0 0 0 0 0 0 0 0 -16 0 0 21 0 0 11 0 0 0 -8 0 0 0 0 0 0 0 0 0 0 0 0 0 0 0 0 0 0 0 0 8 0 0 0 0 0 0 0 0 0 0 0 0 0 0 0 0 0
7.5567 15.4200 21.8198 -179.7180 -11.4626 -161.1560 0.0000 0.0000 0.0000 -12.1264 -25.7760 -36.3613 6.1007 14.5252 45.3846 0.6356 -2.2471 -14.4601 0.9656 -6.2564 -17.5302 0.0000 0.0000 0.0000 23.2701 23.1209 -27.9996 -4.0007 -12.1613 36.3050 -0.3710 -12.8853 -22.3308 -0.2360 3.1268 -8.6320 9.3718 3.7858 -16.8681 -0.2440 2.7925 -4.3880 -4.9937 1.1889 5.2041 19.1604 16.5569 -2.0541 -10.9380 22.7931 23.1856 -3.9815 10.9700 11.4218 0.0000 -0.0000 0.0000 -79.5854 4.8271 47.3404 15.6983 -25.1099 -3.5170 -0.0000 0.0000 -39.2645 26.4654 -0.5016 -0.2497 -7.1250 0.0000 -0.0000 -0.0790 29.4194 0.0300 0.0000 -0.0000 0.0000 84.3066 -6.2057 17.7278 -15.1792 24.3951 -3.2996 0.0000 -0.0000 -3.9601 -17.2995 -17.9694 5.4885 7.1250 -0.0000 -0.0000 10.4401 -48.4606 -0.9003
7.5512 15.4186 21.8204 -179.6030 -11.4965 -161.1480 0.0000 0.0000 0.0000 -11.9708 -25.6856 -36.8437 6.1741 14.5950 45.6767 0.6586 -2.5264 -14.6785 0.9970 -6.3545 -17.8165 0.0000 0.0000 0.0000 23.3812 23.0917 -27.9421 -3.9684 -12.1182 36.1515 -0.3763 -12.8434 -22.3336 -0.2299 3.0859 -8.5180 9.4308 3.7210 -16.8008 -0.1038 2.6900 -4.4071 -4.9013 1.1321 5.1277 18.7388 16.2548 -2.6347 -10.7232 22.2730 23.8264 -3.9133 10.6665 11.6013 0.0000 0.0000 0.0000 -79.7494 4.9249 47.0942 15.7173 -25.1359 -3.5250 -0.0000 0.0000 -39.4486 26.1905 -0.6984 -0.3435 -7.1250 0.0000 -0.0000 -0.2946 29.2015 0.1134 0.0000 0.0000 0.0000 84.0912 -6.0481 17.8022 -15.0931 24.2756 -3.2641 0.0000 -0.0000 -3.8894 -17.2987 -18.1812 5.5504 7.1250 -0.0000 -0.0000 10.5070 -48.6754 -0.9623
7.5458 15.4237 21.8190 -179.4890 -11.5167 -161.1220 0.0000 0.0000 0.0000 -11.7859 -25.6162 -37.3349 6.2084 14.6273 45.8125 0.6752 -2.9988 -14.7930 0.9970 -6.3544 -17.8161 0.0000 0.0000 0.0000 23.4913 23.0618 -27.8511 -3.9199 -12.0531 35.9201 -0.3782 -12.8063 -22.3097 -0.2201 3.0201 -8.3347 9.5021 3.6698 -16.7155 0.0034 2.6077 -4.4445 -4.8478 1.0833 5.0271 18.2211 15.9939 -3.2975 -10.3040 21.7651 24.5410 -3.7498 10.3750 11.7927 -0.0000 -0.0000 0.0000 -79.8659 5.0647 46.8714 15.7485 -25.1784 -3.5383 -0.0000 0.0000 -39.5928 26.2930 -0.7467 -0.3689 -7.1250 0.0000 -0.0000 -0.2146 29.1469 0.0829 -0.0000 -0.0000 0.0000 83.9475 -5.9632 17.8765 -15.0520 24.2185 -3.2472 0.0000 -0.0000 -3.8386 -17.2909 -18.2861 5.5785 7.1250 -0.0000 -0.0000 10.5474 -48.7807 -0.9937
7.5404 15.4300 21.8166 -179.4100 -11.5299 -161.0670 0.0000 0.0000 0.0000 -11.5906 -25.6356 -37.8412 6.2283 14.6460 45.8911 0.7014 -3.3466 -15.0406 0.9675 -6.2625 -17.5480 0.0000 0.0000 0.0000 23.5550 23.0404 -27.7784 -3.8745 -11.9914 35.7017 -0.3900 -12.7491 -22.3569 -0.2100 2.9503 -8.1404 9.4756 3.5965 -16.7016 0.1354 2.5009 -4.4795 -4.7156 1.0221 4.9594 17.6032 15.6532 -3.8326 -9.9494 21.1788 25.1629 -3.6232 10.0393 11.9130 0.0000 0.0000 0.0000 -80.0471 5.1907 46.6388 15.7393 -25.1659 -3.5344 -0.0000 0.0000 -39.7040 26.5241 -0.9075 -0.4529 -7.1250 0.0000 -0.0000 -0.0347 28.9655 0.0136 0.0000 0.0000 0.0000 83.7397 -5.8967 18.0012 -15.0125 24.1635 -3.2311 0.0000 -0.0000 -3.8069 -17.3214 -18.2238 5.5706 7.1250 -0.0000 -0.0000 10.4987 -48.7220 -0.9737
7.5344 15.4349 21.8138 -179.3220 -11.5367 -161.0160 0.0000 0.0000 0.0000 -11.4125 -25.6239 -38.3013 6.2318 14.6493 45.9052 0.7199 -3.6342 -15.2106 0.9697 -6.2692 -17.5676 0.0000 0.0000 0.0000 23.6293 23.0124 -27.6980 -3.8253 -11.9242 35.4643 -0.3978 -12.6890 -22.3634 -0.2003 2.8821 -7.9507 9.4738 3.5287 -16.6724 0.2619 2.3987 -4.5263 -4.6028 0.9617 4.8731 17.0128 15.3287 -4.3482 -9.5915 20.6176 25.7744 -3.4929 9.7184 12.0404 0.0000 0.0000 0.0000 -80.2105 5.3538 46.3947 15.7489 -25.1790 -3.5384 -0.0000 0.0000 -39.8390 26.5664 -1.0338 -0.5169 -7.1250 0.0000 -0.0000 -0.0026 28.8239 0.0010 0.0000 0.0000 0.0000 83.5505 -5.8367 18.1044 -14.9644 24.0965 -3.2114 0.0000 -0.0000 -3.7573 -17.3614 -18.2394 5.5888 7.1250 -0.0000 -0.0000 10.4658 -48.7439 -0.9762
7.5282 15.4403 21.8101 -179.2410 -11.5326 -160.9520 0.0000 0.0000 0.0000 -11.2325 -25.6350 -38.7400 6.2116 14.6303 45.8251 0.7362 -3.8409 -15.3665 0.9727 -6.2787 -17.5952 0.0000 0.0000 0.0000 23.6886 22.9914 -27.6288 -3.7773 -11.8581 35.2317 -0.4070 -12.6209 -22.3743 -0.1900 2.8075 -7.7434 9.4533 3.4611 -16.6585 0.3852 2.2976 -4.5786 -4.4823 0.9010 4.7894 16.3731 14.9811 -4.8356 -9.2258 20.0305 26.3591 -3.3587 9.3829 12.1476 0.0000 -0.0000 0.0000 -80.3739 5.5288 46.1515 15.7580 -25.1914 -3.5423 -0.0000 0.0000 -39.9633 26.5944 -1.1623 -0.5818 -7.1250 0.0000 -0.0000 0.0182 28.6800 -0.0072 0.0000 -0.0000 0.0000 83.3657 -5.7893 18.2077 -14.9197 24.0342 -3.1932 0.0000 -0.0000 -3.7115 -17.4146 -18.2362 5.6060 7.1250 -0.0000 -0.0000 10.4142 -48.7484 -0.9725
